<svg width="96" height="96" xmlns="http://www.w3.org/2000/svg" xmlns:xlink="http://www.w3.org/1999/xlink" overflow="hidden"><g><path d="M0 0 96 0 96 96 0 96Z" fill="#FFFFFF" fill-rule="evenodd" fill-opacity="0"/><g><g><g><g><path d="M48 31C40.8 31 36.3 34.6 34.5 41.8 37.2 38.2 40.35 36.85 43.95 37.75 46.004 38.263 47.472 39.754 49.097 41.403 51.744 44.09 54.808 47.2 61.5 47.2 68.7 47.2 73.2 43.6 75 36.4 72.3 40 69.15 41.35 65.55 40.45 63.496 39.937 62.028 38.446 60.403 36.797 57.756 34.11 54.692 31 48 31ZM34.5 47.2C27.3 47.2 22.8 50.8 21 58 23.7 54.4 26.85 53.05 30.45 53.95 32.504 54.464 33.972 55.954 35.597 57.603 38.244 60.29 41.308 63.4 48 63.4 55.2 63.4 59.7 59.8 61.5 52.6 58.8 56.2 55.65 57.55 52.05 56.65 49.996 56.137 48.528 54.646 46.903 52.997 44.256 50.31 41.192 47.2 34.5 47.2Z" fill-rule="evenodd"/></g></g></g></g></g></svg>